<?xml version="1.0" encoding="UTF-8" standalone="no"?>
<svg
   version="1.1"
   viewBox="0.0 0.0 960.0 540.0"
   fill="none"
   stroke="none"
   stroke-linecap="square"
   stroke-miterlimit="10"
   id="svg17"
   xmlns:xlink="http://www.w3.org/1999/xlink"
   xmlns="http://www.w3.org/2000/svg"
   xmlns:svg="http://www.w3.org/2000/svg">
  <defs
     id="defs17" />
  <clipPath
     id="p.0">
    <path
       d="m0 0l960.0 0l0 540.0l-960.0 0l0 -540.0z"
       clip-rule="nonzero"
       id="path1" />
  </clipPath>
  <g
     clip-path="url(#p.0)"
     id="g17">
    <g
       transform="matrix(0.5 0.0 0.0 0.5 0.0 0.0)"
       id="g4"
       style="fill:#205754;fill-opacity:1">
      <clipPath
         id="p.1">
        <path
           d="m0 0l1920.0 0l0 1080.0l-1920.0 0z"
           clip-rule="evenodd"
           id="path4" />
      </clipPath>
      <path
         style="display:inline;fill:#205754;fill-opacity:1"
         d="M 239.22155,1078.3921 238,1077.0844 V 1020.0422 963 H 120.42857 2.8571429 l -1.5,-1.5 -1.50000004,-1.5 H 0.92857143 2 v -1.05902 -1.05901 L 1,958.5 0,959.11803 v -0.40537 -0.40538 L 1.4550462,955.40364 2.9100925,952.5 117.77412,837.75 232.63815,723 H 117.74765 2.8571429 L 1.5786922,721.72155 0.30024163,720.4431 1.6079145,719.22155 2.9155874,718 H 120.45779 238 V 600 482 L 120.25,481.98469 2.5,481.96937 1,480.98469 -0.5,480 1,479.01531 2.5,478.03063 120.25,478.01531 238,478 V 360 242 L 120.25,241.98469 2.5,241.96937 1,240.98469 -0.5,240 1,239.01531 2.5,238.03063 120.25,238.01531 238,238 V 120.42857 2.8571429 L 239.27845,1.5786922 240.5569,0.30024163 241.77845,1.6079145 243,2.9155874 V 120.45779 238 H 361 479 V 120.42857 2.8571429 L 480.27845,1.5786922 481.5569,0.30024163 482.77845,1.6079145 484,2.9155874 V 120.45779 238 H 601 718 V 120.42857 2.8571429 L 719.27845,1.5786922 720.5569,0.30024163 721.77845,1.6079145 723,2.9155874 V 118.70618 234.49678 L 839.25,118.48307 955.5,2.4693594 957.88402,1.1425097 960.26804,-0.18434003 961.11871,1.15783 961.96937,2.5 961.98469,120.25 962,238 l 23.25,0.0768 23.25,0.0768 94.5,0.17322 94.5,0.17321 0.2541,-117.82555 0.2541,-117.8255518 1.2744,-1.2743283 1.2743,-1.27432827 1.2216,1.30767287 L 1203,2.9155874 V 240.43687 477.95816 H 1440.5 1678 V 240.40765 2.8571429 l 1.2785,-1.2784507 1.2784,-1.27845057 1.2216,1.30767287 1.2215,1.3076729 0.077,97.2922026 0.077,97.29221 2.0146,-9.5 2.0145,-9.5 4.8464,-14.74379 4.8463,-14.7438 6.387,-13.2562 6.3869,-13.25621 5.7725,-9.30939 5.7724,-9.30938 7.5784,-10.190617 7.5785,-10.190613 11.0742,-11.392619 11.0743,-11.39262 9,-7.536069 9,-7.536069 12,-7.935053 12,-7.935053 11.9272,-5.982801 11.9272,-5.9828 10.0601,-3.920546 10.0602,-3.9205466 10.4202,-2.9871301 10.4203,-2.9871302 6.0924,-0.9431698 L 1877.5,2.1052234 1888.5461,1.0526117 1899.5921,0 l 10.454,0.18337956 10.4539,0.18337957 -8,0.59818764 -8,0.59818763 4.5,0.5437256 4.5,0.5437256 -7,0.1930272 -7,0.1930273 -10.3035,1.464624 -10.3036,1.4646239 -11.5447,2.5892714 -11.5448,2.5892716 -11.6517,3.981052 -11.6517,3.981053 -13.5,6.506758 -13.5,6.506759 -7.5,4.620194 -7.5,4.620195 -11.2083,8.282828 -11.2083,8.282829 -11.1691,10.78695 -11.169,10.786951 -8.0508,10 -8.0508,10 -6.9386,10.5 -6.9386,10.5 -7.3324,15 -7.3324,15 -4.5144,13.5984 -4.5143,13.59841 -2.4982,12.40159 -2.4982,12.4016 -1.2034,9.5 -1.2033,9.5 v 18 18 l 1.2033,9.5 1.2034,9.5 2.4982,12.4016 2.4982,12.40159 4.5143,13.59841 4.5144,13.5984 7.3324,15 7.3324,15 6.9386,10.5 6.9386,10.5 8.0622,10 8.0622,10 10.366,10.03521 10.3659,10.03521 7.0031,5.56037 7.0031,5.56037 9.9969,6.72834 9.9969,6.72834 15.5347,7.74004 15.5347,7.74003 13.9653,4.61123 13.9653,4.61123 9.5,2.02001 9.5,2.02002 6.5,1.02917 6.5,1.02916 12.5,0.95059 12.5,0.95058 1.75,0.68204 1.75,0.68204 v 1.28602 1.28602 l -1.5818,0.60699 L 1916.8364,482 H 1799.9182 1683 v 238 238 l 117.25,0.0153 117.25,0.0153 1.5,0.98468 1.5,0.98469 -1.5,0.98469 -1.5,0.98468 -117.25,0.0153 L 1683,962 v 57.5714 57.5715 l -1.2785,1.2784 -1.2784,1.2785 -1.2216,-1.3077 -1.2215,-1.3077 V 1019.5422 962 l -84.25,3.6e-4 -84.25,3.6e-4 -153.75,0.66523 -153.75,0.66523 -0.015,57.08442 -0.015,57.0844 -0.9847,1.5 -0.9847,1.5 -0.9847,-1.5 -0.9847,-1.5 -0.015,-57.25 L 1198,963 H 1079.5 961 l -0.0153,57.25 -0.0153,57.25 -0.98468,1.5 -0.98469,1.5 -0.98469,-1.5 -0.98468,-1.5 -0.0153,-57.25 L 957,963 H 840 723 v 57.0714 57.0715 l -1.27845,1.2784 -1.27845,1.2785 -1.22155,-1.3077 L 718,1077.0844 V 1020.0422 963 H 600.5 483 l -0.0153,57.25 -0.0153,57.25 -0.98468,1.5 -0.98469,1.5 -0.98469,-1.5 -0.98468,-1.5 -0.0153,-57.25 L 479,963 H 361 243 v 57.0714 57.0715 l -1.27845,1.2784 -1.27845,1.2785 z M 238,841.37635 V 724.7527 L 133.25,828.80629 28.5,932.85988 16.015006,945.42994 3.530012,958 H 120.76501 238 Z M 479,840.5 V 723 H 361 243 V 840.5 958 h 118 118 z m 239,0 V 723 H 601.16183 484.32366 l -0.66022,33.75 -0.66023,33.75 -0.002,83.08333 -0.002,83.08334 0.66667,0.66666 L 484.33333,958 H 601.16667 718 Z M 956.75413,840.25 957.00826,723 H 840.00413 723 V 840.50415 958.0083 L 839.75,957.75415 956.5,957.5 Z m 240.99997,0 0.2542,-117.25 H 1080.166 962.32366 l -0.66022,33.75 -0.66023,33.75 -0.002,83.08333 -0.002,83.08334 0.67076,0.67076 0.67077,0.67076 L 1079.9208,957.7541 1197.5,957.5 Z m 203.1336,117.30436 -0.4456,-0.44563 -7.9711,-1.6171 -7.971,-1.6171 -10.5,-2.99029 -10.5,-2.99029 -11.5,-4.54296 -11.5,-4.54296 -11.2752,-5.87382 -11.2753,-5.87381 -9.746,-6.4262 -9.746,-6.4262 -8.4787,-6.82991 -8.4788,-6.82991 -8.8783,-8.52409 -8.8782,-8.52409 -7.972,-9.5 -7.972,-9.5 -8.3172,-12.5 -8.3171,-12.5 -6.4635,-13 -6.4635,-13 -3.5819,-9.60706 -3.5819,-9.60706 -2.9126,-10.39294 -2.9125,-10.39294 -0.7639,-4.5 -0.7639,-4.5 -0.7905,2 -0.7904,2 -0.07,94.08333 -0.07,94.08334 0.6667,0.66666 0.6666,0.66667 h 99 99 z m 277.0089,-96.30436 -0.1033,-96.75 -0.9719,4 -0.9719,4 -2.9383,10.82991 -2.9383,10.8299 -3.6056,9.6701 -3.6055,9.67009 -6.4635,13 -6.4635,13 -8.3171,12.5 -8.3172,12.5 -7.972,9.5 -7.972,9.5 -8.8782,8.52409 -8.8783,8.52409 -8.4788,6.82991 -8.4787,6.82991 -9.746,6.4262 -9.746,6.4262 -11.2753,5.87381 -11.2752,5.87382 -11.5,4.54296 -11.5,4.54296 -10.5,2.99029 -10.5,2.99029 -7.971,1.6171 -7.9711,1.6171 -0.4456,0.44563 L 1479.6667,958 H 1578.8333 1678 Z m -208.3966,92.63663 8,-0.98154 10,-2.00949 10,-2.00949 10.5,-3.03346 10.5,-3.03346 11,-4.47482 11,-4.47482 10.0483,-5.29877 10.0483,-5.29878 8.4517,-5.49243 8.4517,-5.49242 7.7916,-6.01923 7.7916,-6.01922 8.653,-7.87435 8.6531,-7.87435 9.413,-11 9.4131,-11 8.0545,-12 8.0545,-12 7.7742,-16 7.7742,-16 3.9711,-12 3.9712,-12 2.5801,-11.56551 2.5802,-11.56551 1.5123,-12.92836 L 1677,733.51226 V 719 704.48774 l -1.5123,-12.92836 -1.5123,-12.92836 -2.5802,-11.56551 -2.5801,-11.56551 -3.9712,-12 -3.9711,-12 -7.7742,-16 -7.7742,-16 -8.0545,-12 -8.0545,-12 -9.4131,-11 -9.413,-11 -8.6531,-7.87435 -8.653,-7.87435 -7.7916,-6.01922 -7.7916,-6.01923 -8.4517,-5.49242 -8.4517,-5.49243 -10.0483,-5.29878 -10.0483,-5.29877 -11,-4.48385 -11,-4.48385 -12.5,-3.55202 -12.5,-3.55202 -11.5,-2.15522 -11.5,-2.15522 -23.7222,-0.48843 -23.7222,-0.48843 -9.7778,1.14978 -9.7778,1.14978 -10,2.02146 -10,2.02146 -10.5,3.03346 -10.5,3.03346 -11,4.47482 -11,4.47482 -10.0483,5.29877 -10.0483,5.29878 -8.4517,5.49243 -8.4517,5.49242 -7.7916,6.01923 -7.7916,6.01922 -8.653,7.87435 -8.6531,7.87435 -9.413,11 -9.4131,11 -8.0545,12 -8.0545,12 -7.7742,16 -7.7742,16 -3.9711,12 -3.9712,12 -2.5801,11.56551 -2.5802,11.56551 -1.5123,12.92836 L 1204,704.48774 V 719 733.51226 l 1.5123,12.92836 1.5123,12.92836 2.5802,11.56551 2.5801,11.56551 3.9712,12 3.9711,12 7.7742,16 7.7742,16 8.0545,12 8.0545,12 9.4131,11 9.413,11 8.6531,7.87435 8.653,7.87435 7.7916,6.01922 7.7916,6.01923 8.4517,5.49242 8.4517,5.49243 10.0483,5.29878 10.0483,5.29877 11,4.47482 11,4.47482 10.5,3.03346 10.5,3.03346 10,2.02146 10,2.02146 9.5,1.0433 9.5,1.04331 5,0.37799 5,0.378 14.5,-0.45173 14.5,-0.45173 z M 479,601.5 V 485 h -0.75161 -0.75161 L 361,601.5 244.50322,718 H 361.75161 479 Z M 718,600 V 482 H 601 484 V 600 718 H 601 718 Z M 956.75411,600.25 956.5,482.5 839.75,482.24585 723,481.9917 V 599.99585 718 h 117.00411 117.00412 z m 240.99999,0 L 1197.5,482.5 1079.75,482.24589 962,481.99177 V 599.99589 718 h 118.0041 118.0041 z M 473,482.75163 V 482 H 358 243 V 597.74837 713.49674 L 358,598.5 473,483.50326 Z m 735.0888,171.91846 2.9383,-10.8299 3.6056,-9.6701 3.6055,-9.67009 6.4635,-13 6.4635,-13 8.3171,-12.5 8.3172,-12.5 7.972,-9.5 7.972,-9.5 8.8782,-8.52409 8.8783,-8.52409 8.4788,-6.82991 8.4787,-6.82991 9.746,-6.4262 9.746,-6.4262 11.2753,-5.87381 11.2752,-5.87382 11.5,-4.54945 11.5,-4.54945 11.5,-3.14841 11.5,-3.1484 2,-0.83045 2,-0.83045 -93.75,-0.0677 L 1203,482 l 0.1034,95.75 0.1033,95.75 0.9719,-4 0.9719,-4 z M 1678,577.5 V 482 l -93.75,0.0677 -93.75,0.0677 2,0.83045 2,0.83045 11.5,3.1484 11.5,3.14841 11.5,4.54945 11.5,4.54945 11.2752,5.87382 11.2753,5.87381 9.746,6.4262 9.746,6.4262 8.4787,6.82991 8.4788,6.82991 8.8783,8.52409 8.8782,8.52409 7.972,9.5 7.972,9.5 8.3172,12.5 8.3171,12.5 6.4635,13 6.4635,13 3.5819,9.60706 3.5819,9.60706 2.9126,10.39294 2.9125,10.39294 0.7125,4.25 0.7126,4.25 h 0.4121 H 1678 Z M 478.75411,359.75 479.00823,242 H 361.00411 243 V 360.00411 478.00823 L 360.75,477.75411 478.5,477.5 Z M 718,361.82594 V 245.65188 L 602.19488,361.07594 486.38976,476.5 l 0.36414,0.75 0.36413,0.75 H 602.55902 718 Z M 956.75411,359.75 957.00823,242 H 840.00411 723 V 360.00415 478.0083 L 839.75,477.75415 956.5,477.5 Z m 240.99999,0 0.2541,-117.75 H 1080.0041 962 V 360.00411 478.00823 L 1079.75,477.75411 1197.5,477.5 Z m 677.0491,117.71986 -0.5302,-0.53014 -9.8865,-2.41151 -9.8865,-2.41151 -7.5,-2.46799 -7.5,-2.46798 -7.7247,-3.06997 -7.7247,-3.06998 -11.7753,-5.90665 -11.7753,-5.90665 -12,-7.93505 -12,-7.93505 -9,-7.53607 -9,-7.53607 -11.0743,-11.39262 -11.0742,-11.39262 -7.5785,-10.19061 -7.5784,-10.19062 -5.7724,-9.30938 -5.7725,-9.30939 -6.3869,-13.25621 -6.387,-13.2562 -4.8463,-14.7438 -4.8464,-14.74379 -2.0145,-9.5 -2.0146,-9.5 -0.077,98.25 L 1683,478 h 96.1667 96.1666 z M 655.75,301.50329 714,243.50641 V 242.75321 242 H 599 484 v 115.24668 115.24668 l 56.75,-56.49659 56.75,-56.4966 z M 957,122.8768 V 7.7535902 L 878.25,85.811763 799.5,163.86993 762.50507,200.93497 725.51014,238 H 841.25507 957 Z"
         id="path17" />
    </g>
  </g>
</svg>
