<svg width="200" height="200" viewBox="0 0 200 200" version="1.1" xml:space="preserve" xmlns="http://www.w3.org/2000/svg" xmlns:svg="http://www.w3.org/2000/svg">
<defs id="defs1" />
<g id="layer1" transform="translate(-0.91819919,0.99291838)">
    <circle style="fill: #1c524f; fill-opacity: 1; stroke: #000000; stroke-width: 0.139035" id="path1" cx="100" cy="100" r="100" />
    <g style="fill:none" id="g1" transform="matrix(4.3679599,0,0,4.3679599,48.836515,45.749721)">
      <path d="M 23.5,13.708628 H 4.3999999 c 0.676948,3.661295 3.876675,6.3137 7.6000001,6.3 2.721406,0.105647 5.25704,-1.376724 6.5,-3.8 h 4.4 c -1.8,4.8 -5.6,7.4 -11,7.4 -7.0000001,0 -11.900000061279301,-5.3 -11.900000061279301,-11.8 C -6.1279287e-8,5.1086276 4.7999999,0.00862765 11.9,0.00862765 19.29786,-0.27461335 24.99906,6.4587096 23.5,13.708628 Z M 11.9,3.7086276 c -3.9143321,-0.06279 -7.1345301,2.925933 -7.4000001,6.8000004 0,0 10.7952201,0 14.8000001,0 C 19.045306,6.8619226 15.814332,3.7714156 11.9,3.7086276 Z" style="display: inline; fill: #ffffff" id="path1-9-8" />
    </g>
  </g>
</svg>
